<svg viewBox="0 0 24 24" xmlns="http://www.w3.org/2000/svg" fill-rule="evenodd" clip-rule="evenodd" stroke-linejoin="round" stroke-miterlimit="1.414"><path fill="none" d="M0 0h24v24H0z"/><path d="M5.4 1.55c.512 0 .956.353 1.072.853L7.545 7.05H21.9c.34 0 .658.156.866.423.208.267.283.616.202.943l-2.2 8.8c-.124.49-.564.834-1.07.834H8.7c-.513 0-.956-.354-1.073-.852L4.525 3.75H1v-2.2h4.4z" fill-rule="nonzero"/><circle cx="6" cy="20" r="2" transform="matrix(-1.09998 0 0 1.09998 25.2 -.65)"/><circle cx="14" cy="20" r="2" transform="matrix(-1.09998 0 0 1.09998 25.2 -.65)"/><path d="M22.03 5.95h-2.46l.912-1.823-1.456-.97L17.63 5.95H13.1v-1.1h-2.2v1.1H8.7v-2.2c0-.607.492-1.1 1.1-1.1h4.4c.608 0 1.1.492 1.1 1.1v1.94l2.316-4.632c.14-.282.397-.49.7-.57.305-.082.63-.03.894.147l3.3 2.2c.462.308.622.91.374 1.407L22.03 5.95z" fill-rule="nonzero"/></svg>