<svg xmlns="http://www.w3.org/2000/svg" width="32" height="32" viewBox="0 0 32 32"><g fill="#FFF"><path d="M.18 18.97l3.226-5.58c.053-.092.114-.18.187-.255.223-.246.53-.405.868-.434.435-.032.858.14 1.138.472l4.285 5.11c.473.563.4 1.404-.165 1.877-.564.472-1.405.4-1.878-.166L5.9 17.68c.737 3.777 3.755 7.122 7.735 8.054 3.37.792 6.858-.194 9.325-2.635.524-.52 1.368-.515 1.886.01.518.522.513 1.366-.01 1.884-2.414 2.387-5.597 3.675-8.89 3.674-.97 0-1.95-.11-2.92-.34-4.807-1.125-8.504-5.067-9.62-9.615l-.918 1.59c-.247.428-.695.666-1.156.666-.227 0-.456-.058-.666-.18-.637-.366-.855-1.182-.487-1.82zM22.114 13.19c.564-.473 1.405-.4 1.878.164l2.296 2.74c-.045-1.71-.53-3.398-1.447-4.93-1.48-2.473-3.902-4.26-6.643-4.9-3.594-.844-7.344.355-9.788 3.126-.488.552-1.33.605-1.883.118-.552-.487-.605-1.33-.118-1.882 3.094-3.51 7.845-5.03 12.396-3.96 3.44.807 6.473 3.04 8.323 6.128.83 1.388 1.372 2.882 1.64 4.414l.754-1.257c.38-.63 1.2-.834 1.83-.455.63.38.835 1.2.455 1.83l-3.414 5.682c-.222.37-.61.61-1.038.643-.035.003-.07.004-.104.004-.393 0-.768-.173-1.022-.477l-4.283-5.11c-.474-.564-.4-1.405.164-1.878z"/></g></svg>