<?xml version="1.0" encoding="utf-8"?>
<!-- Generator: Adobe Illustrator 17.0.0, SVG Export Plug-In . SVG Version: 6.00 Build 0)  -->
<!DOCTYPE svg PUBLIC "-//W3C//DTD SVG 1.1//EN" "http://www.w3.org/Graphics/SVG/1.1/DTD/svg11.dtd">
<svg version="1.1" id="Layer_1" xmlns="http://www.w3.org/2000/svg" xmlns:xlink="http://www.w3.org/1999/xlink" x="0px" y="0px"
	 width="32px" height="32px" viewBox="0 0 32 32" enable-background="new 0 0 32 32" xml:space="preserve">
<g>
	<path fill="#FFFFFF" d="M0.179,18.971l3.227-5.581c0.053-0.092,0.114-0.179,0.187-0.255c0.223-0.246,0.531-0.405,0.868-0.434
		c0.434-0.033,0.857,0.139,1.137,0.471l4.285,5.109c0.473,0.564,0.399,1.405-0.165,1.878c-0.564,0.473-1.405,0.4-1.878-0.165
		L5.9,17.681c0.737,3.776,3.755,7.121,7.735,8.053c3.371,0.792,6.858-0.194,9.325-2.635c0.524-0.518,1.368-0.514,1.886,0.01
		c0.518,0.523,0.513,1.367-0.01,1.885c-2.414,2.387-5.597,3.675-8.89,3.674c-0.969,0-1.949-0.111-2.92-0.339
		c-4.807-1.126-8.504-5.068-9.619-9.616l-0.919,1.59c-0.247,0.428-0.695,0.666-1.156,0.666c-0.227,0-0.456-0.057-0.666-0.179
		C0.029,20.424-0.189,19.608,0.179,18.971z"/>
	<path fill="#FFFFFF" d="M22.114,13.189c0.564-0.472,1.405-0.399,1.878,0.165l2.296,2.74c-0.045-1.709-0.529-3.398-1.447-4.93
		c-1.482-2.473-3.903-4.259-6.644-4.901C14.603,5.42,10.853,6.619,8.409,9.39c-0.487,0.552-1.33,0.605-1.882,0.118
		C5.975,9.021,5.922,8.178,6.409,7.626c3.095-3.509,7.846-5.029,12.397-3.959c3.439,0.806,6.473,3.039,8.323,6.127
		c0.832,1.388,1.373,2.882,1.64,4.414l0.755-1.257c0.379-0.63,1.199-0.835,1.829-0.456c0.631,0.379,0.836,1.199,0.456,1.83
		l-3.413,5.682c-0.222,0.369-0.609,0.609-1.038,0.643c-0.035,0.003-0.07,0.004-0.104,0.004c-0.393,0-0.768-0.173-1.022-0.477
		l-4.283-5.109C21.476,14.503,21.549,13.662,22.114,13.189z"/>
</g>
</svg>
